<?xml version="1.0" encoding="utf-8"?>
<!-- Generator: Adobe Illustrator 27.8.1, SVG Export Plug-In . SVG Version: 6.00 Build 0)  -->
<svg version="1.1" xmlns="http://www.w3.org/2000/svg" xmlns:xlink="http://www.w3.org/1999/xlink" x="0px" y="0px"
	 viewBox="0 0 1000 1000" style="enable-background:new 0 0 1000 1000;" xml:space="preserve">
<style type="text/css">
	.st0{fill:#006838;}
	.st1{fill:#C49C18;}
</style>
<g id="Layer_2">
</g>
<g id="Layer_1">
	<g>
		<polygon class="st0" points="15.45,336.06 15.45,642.52 104.56,605.61 104.56,373.06 		"/>
		<polygon class="st0" points="128.66,222.94 165.63,312.04 837.49,312.04 874.58,222.94 		"/>
		<polygon class="st0" points="987.71,642.5 987.71,336.14 898.6,373.02 898.6,605.61 		"/>
		<polygon class="st0" points="145.71,658.4 112.79,625.48 23.68,662.39 108.48,747.19 		"/>
		<polygon class="st0" points="112.75,353.17 115.54,350.43 145.74,320.23 108.79,231.17 23.74,316.22 		"/>
		<polygon class="st0" points="857.39,320.2 890.35,353.16 979.48,316.27 894.42,231.22 		"/>
		<polygon class="st0" points="890.43,625.5 857.48,658.48 894.37,747.5 979.49,662.38 		"/>
		<path class="st0" d="M837.57,666.62H399.83c-10.77,7.51-24.09,11.84-38.81,11.84c-14.3,0-27.61-4.27-38.5-11.84H165.59
			l-37.37,89.1H874.5L837.57,666.62z"/>
	</g>
	<path class="st0" d="M840.32,333.55H162.84l-36.77,36.77v238.02l36.77,36.77h140.22c-1.62-2.93-3.04-6.01-4.22-9.23
		c-8.13-22.28-1.95-50.26,25.58-60.64c0.14-0.05,0.29-0.11,0.43-0.16c-8.84-9.19-13.68-21.48-13.68-34.92
		c0-23.58,15.55-42.8,37.15-48.35h-170.9V353.45l100.82,0.07l37,37.01l37.02-37.01l135.43,0c28.33,0.21,50.44,22.5,50.44,50.75
		c0,14.53-5.78,27.7-15.59,37.01l16.1,16.1l49.15-103.86h19.89l40.53,85.99v-85.99h49.55l-0.04,88.75h29.06v-88.75h44.25
		c38.82,0,69.2,30.37,69.2,69.15s-30.37,69.15-69.15,69.15h-11.83c14.09,3.11,27,11.23,36.36,21.58c3.37,3.73,6.42,7.59,8.94,11.16
		l-0.01,14.01h7.29c0,3.5,0,38.19,0,38.19c-6.4,33.04-33.65,56.54-67.97,56.54c-6.39,0-12.55-0.85-18.38-2.44l-1.31,0.03h-54.36
		l-40.72-40.63v40.62h-35.99v0.01h-49.58v-77.66l-36.76,77.66l-81.87,0.01c-1.39,5.04-3.33,9.8-5.76,14.23h421.19l36.77-36.77
		V370.32L840.32,333.55z"/>
	<g>
		<path class="st1" d="M191.36,367.47v110.4V367.47z M260.63,389.11v-21.64c-23.09-0.01-46.18,0.11-69.26,0v110.39h69.26v-21.64
			h-47.62v-30.3h30.3v-21.64h-30.3v-15.16H260.63z"/>
		<path class="st1" d="M315.22,440.93v-0.02l-23.4-23.4v60.36h-21.68V365.17v-0.02l45.11,45.11l45.09-45.11v0.02v112.68h-21.68
			V417.5l-23.4,23.4v0.02H315.22z"/>
		<path class="st1" d="M370.43,367.47v110.4V367.47z M439.7,389.11v-21.64c-23.09-0.01-46.18,0.11-69.26,0v110.39h69.26v-21.64
			h-47.62v-30.3h30.3v-21.64h-30.3v-15.16H439.7z"/>
		<path class="st1" d="M450.6,367.47h37.1c20.71,0.15,36.49,16.04,36.49,36.8c0,16.25-9.68,29.5-23.79,34.58l39.01,39.01h-30.6
			l-36.56-36.55v36.55H450.6V367.47z M487.69,419.42v0.02c8.46-0.17,14.87-6.69,14.87-15.19c0-8.51-6.41-15.02-14.87-15.2v0.06
			h-15.45v30.3H487.69z"/>
		<path class="st1" d="M616.73,456.29h-38.14l-10.18,21.57h-24l53.24-112.73l53.26,112.73h-23.99L616.73,456.29z M588.86,434.58
			h17.61l-8.82-18.64L588.86,434.58z"/>
		<path class="st1" d="M662.17,477.86V367.47h21.64v88.75h47.62v21.64H662.17z"/>
		<path class="st1" d="M771.1,367.47c31.3,0,55.2,23.9,55.2,55.2c0,31.3-23.9,55.19-55.2,55.19h-0.05h-30.3V367.47h30.3H771.1z
			 M771.05,456.13c18.99,0,33.51-14.52,33.51-33.5c0-18.99-14.52-33.49-33.51-33.49v-0.02h-8.66v67.1h8.66V456.13z"/>
	</g>
	<g>
		<path class="st1" d="M496.88,568.42l29.3-62.01h24.01L496.9,619.3l-23.93-50.62l-23.89,50.62l-53.36-112.88h24.04l29.29,62.01
			l11.89-25.17l-17.41-36.84h24.04L496.88,568.42z"/>
		<path class="st1" d="M557.48,506.4h21.68v110.52h-21.68V506.4z"/>
		<path class="st1" d="M677.58,506.33v112.66v0.02l-62.44-62.44v60.35h-21.68V504.25v-0.02l62.44,62.44v-60.33H677.58z"/>
		<path class="st1" d="M688.42,561.71c0-32.66,24.01-57.62,55.45-57.62c16.66,0,31.25,7.03,41.25,18.48l-16.06,16.05
			c-6.02-7.17-14.96-11.59-25.22-11.59c-18.91,0-33.35,15-33.35,34.66c0,19.66,14.44,34.66,33.35,34.66
			c14.83,0,26.92-9.23,31.44-22.69H749.3v-22.69h50.02v11.82h-0.02c-0.52,32.12-24.35,56.54-55.43,56.54
			C712.43,619.34,688.42,594.38,688.42,561.71z"/>
		<path class="st1" d="M378.91,562.64c-19.69-5.38-27.12-9.14-29.76-11.25c-2.64-2.11-4.39-6.96-4.39-11.26
			c0-9.2,7.2-16.4,16.4-16.4c4.94,0,9.38,2.06,12.4,5.54l20.06-5.39c-5.85-12.05-18.18-19.78-32.42-19.78
			c-20.56,0-36.07,15.51-36.07,36.07c0,10.64,4.12,20.05,11.16,26.59c8.39,8.39,21.4,9.77,35.45,14.46
			c16.28,5.44,21.85,16.53,21.85,30.84c0,18.27-14.32,32.58-32.59,32.58c-13.09,0-24.48-7.46-29.62-18.77
			c-8.24-18.86,15.53-33.05,25.11-13.55l15.74-3.91c-3.25-12.85-16.76-29.96-42.87-20.11c-22.04,8.32-21.91,30.43-17.4,42.79
			c7.41,20.23,26.42,33.42,49.08,33.42c29.88,0,52.41-22.53,52.41-52.42C413.43,588.35,405.33,571.06,378.91,562.64z"/>
	</g>
</g>
</svg>
